<svg width="32" height="42" viewBox="0 0 32 42" fill="none" xmlns="http://www.w3.org/2000/svg">
<path d="M17.0715 8.76147C17.4485 9.18167 17.9594 9.73013 18.5377 10.2908C19.6888 11.4032 21.2004 12.8539 22.89 12.9977C23.3312 13.0353 23.8111 12.9048 24.0854 12.5576C24.3342 12.2424 24.3718 11.8156 24.4226 11.4175C24.7013 9.24138 25.6832 7.16032 27.1848 5.56027C28.6544 3.9945 29.6054 3.17071 31.7019 2.7284C29.7624 2.56696 28.9474 1.64696 27.1041 1.07417C25.7739 0.661715 24.3718 0.342147 23.0681 1.01556C20.558 2.31263 20.4286 3.56657 18.5919 6.55546C18.1872 7.21119 17.6962 7.94321 17.0715 8.76147Z" fill="url(#paint0_linear_8756_860)"/>
<path opacity="0.38" d="M17.0715 8.76146C17.4485 9.18166 17.9594 9.73012 18.5377 10.2907C19.6678 7.99295 20.3777 5.12791 21.9689 3.13973C22.8458 2.04613 24.0467 1.23228 25.4477 1.01776C25.9187 0.945887 26.3953 0.959156 26.8664 1.02108C27.0101 1.03988 27.1528 1.0631 27.2954 1.08853C27.3662 1.1018 27.4381 1.11065 27.5088 1.12392C27.5774 1.13608 27.6448 1.16151 27.7112 1.17368C27.375 0.951416 26.9803 0.798819 26.5921 0.697089C26.1985 0.595358 25.7927 0.546704 25.3857 0.543387C24.9788 0.540069 24.5686 0.5843 24.1694 0.669444C23.8222 0.743531 23.4805 0.847473 23.151 0.981271C23.1233 0.992329 23.0957 1.00449 23.0681 1.01555C20.4651 2.11468 20.4286 3.56656 18.5919 6.55545C18.1872 7.21118 17.6962 7.9432 17.0715 8.76146Z" fill="url(#paint1_linear_8756_860)"/>
<path opacity="0.34" d="M17.673 8.20078C18.7633 9.41824 20.8532 11.5557 22.4986 11.9427C23.3545 12.144 23.8631 12.385 24.2136 12.1406C24.4547 11.4683 24.2302 8.21737 18.4725 6.7478C18.0833 7.37809 18.2745 7.41348 17.673 8.20078Z" fill="url(#paint2_linear_8756_860)"/>
<mask id="mask0_8756_860" style="mask-type:luminance" maskUnits="userSpaceOnUse" x="3" y="17" width="23" height="13">
<path d="M3.69164 20.4981C3.69164 20.4981 12.4427 19.8159 14.9019 17.0249C19.0386 18.5686 26.1996 21.8029 25.4366 24.7155C24.2888 26.7866 22.5207 28.453 20.2605 29.3144C17.9627 28.2031 15.2569 27.4368 13.2389 26.6329L13.1051 26.5799L13.0874 26.5732C12.8452 26.4759 12.6019 26.3786 12.3576 26.2791L12.2912 26.2514C12.1773 26.205 12.0634 26.1586 11.9495 26.1121L11.9031 26.0933C11.7925 26.048 11.6808 26.0015 11.5702 25.9562L11.5304 25.9396L11.1843 25.7959L11.1246 25.7704C11.0063 25.7207 10.888 25.6709 10.7697 25.6212H10.7675C10.6458 25.5692 10.5253 25.5172 10.4048 25.4652L10.3683 25.4498C10.2489 25.3978 10.1294 25.3469 10.01 25.295L9.98347 25.2828C9.87068 25.2341 9.759 25.1844 9.64842 25.1357L9.61414 25.1213C9.49914 25.0705 9.38525 25.0196 9.27246 24.9687L9.22381 24.9466C8.99602 24.8449 8.77155 24.7421 8.55039 24.6392L8.49953 24.616C8.28279 24.5154 8.06938 24.4137 7.86039 24.313L7.79515 24.281C7.69453 24.2323 7.59501 24.1837 7.49549 24.135L7.45236 24.114C7.35616 24.0664 7.26217 24.0189 7.16818 23.9713L7.13832 23.957C7.04323 23.9083 6.95034 23.8608 6.85746 23.8121L6.79111 23.7778C6.69712 23.7281 6.60424 23.6794 6.51246 23.6308C6.42068 23.581 6.33111 23.5324 6.24265 23.4837L6.19289 23.4561C6.10554 23.4074 6.02039 23.3599 5.93635 23.3112L5.90207 23.2913C5.82246 23.2449 5.74395 23.1995 5.66655 23.1542L5.64001 23.1387C5.56039 23.0912 5.48299 23.0436 5.40669 22.9961L5.35914 22.9662C5.28284 22.9187 5.20765 22.8711 5.13467 22.8236C5.06169 22.776 4.99203 22.7285 4.92347 22.682L4.88256 22.6544C4.81621 22.6079 4.75097 22.5626 4.68794 22.5173L4.6614 22.4974C4.6039 22.4553 4.54751 22.4133 4.49332 22.3713L4.46568 22.3503C4.40818 22.3061 4.354 22.2618 4.30092 22.2176L4.26775 22.1899C4.21799 22.1479 4.17044 22.107 4.1251 22.065L4.11294 22.055C4.06539 22.0119 4.02116 21.9677 3.97803 21.9246L3.9515 21.8969C3.90948 21.8538 3.87078 21.8118 3.83429 21.7698L3.82102 21.7532C3.78784 21.7145 3.75688 21.6769 3.72924 21.6382L3.71154 21.615C3.68169 21.574 3.65405 21.5342 3.62972 21.4944L3.61534 21.4701C3.59323 21.4336 3.57332 21.3971 3.55674 21.3606C3.55453 21.3562 3.55121 21.3507 3.549 21.3462C3.53131 21.3075 3.51693 21.2688 3.50477 21.2301L3.49702 21.2047C3.48597 21.166 3.47712 21.1284 3.47159 21.0908V21.0831C3.46606 21.0477 3.46496 21.0123 3.46606 20.978C3.46606 20.9703 3.46606 20.9625 3.46606 20.9548C3.46828 20.9194 3.47381 20.8829 3.48265 20.8487C3.48376 20.842 3.48597 20.8365 3.48818 20.8299C3.49703 20.7978 3.50809 20.7657 3.52246 20.7348C3.52467 20.7292 3.52688 20.7248 3.52909 20.7193C3.54568 20.6861 3.56558 20.6529 3.5888 20.6198C3.59433 20.612 3.59986 20.6054 3.60539 20.5976C3.62972 20.5645 3.65736 20.5324 3.68943 20.5003" fill="white"/>
</mask>
<g mask="url(#mask0_8756_860)">
<path d="M26.0827 16.7646L26.3708 29.1713L3.66883 29.6983L3.38079 17.2916L26.0827 16.7646Z" fill="url(#paint3_linear_8756_860)"/>
</g>
<path opacity="0.16" fill-rule="evenodd" clip-rule="evenodd" d="M21.155 19.8556C23.7901 21.3384 25.8656 23.0778 25.4366 24.7154C24.2888 26.7866 22.5207 28.4529 20.2605 29.3143C17.9627 28.203 15.2569 27.4367 13.2388 26.6329L13.105 26.5798L13.0873 26.572C12.8452 26.4747 12.6019 26.3774 12.3575 26.2779L12.2912 26.2503C12.1773 26.2038 12.0634 26.1574 11.9495 26.1109L11.9031 26.0921C11.7925 26.0468 11.6819 26.0004 11.5702 25.955L11.5304 25.9384L11.1843 25.7947L11.1655 25.7869C18.039 24.6204 21.1539 19.8567 21.1539 19.8567" fill="#1E003D"/>
<path opacity="0.43" fill-rule="evenodd" clip-rule="evenodd" d="M21.9965 28.4376C21.4558 28.7837 20.8764 29.0789 20.2605 29.3134C17.9627 28.2021 15.2569 27.4358 13.2388 26.6319L13.105 26.5788L13.0873 26.571C12.8452 26.4737 12.6019 26.3764 12.3575 26.2769L12.2912 26.2493C12.1773 26.2028 12.0634 26.1564 11.9495 26.1099L11.9031 26.0911C11.7925 26.0458 11.6819 25.9994 11.5702 25.954L11.5304 25.9374L11.1843 25.7937L11.1246 25.7683C11.0063 25.7185 10.888 25.6687 10.7696 25.619H10.7674C10.6458 25.567 10.5253 25.515 10.4047 25.4631L10.3683 25.4476C10.2488 25.3956 10.1294 25.3447 10.01 25.2928L9.98344 25.2806C9.87066 25.232 9.75897 25.1822 9.6484 25.1335L9.61412 25.1192C9.49912 25.0683 9.38522 25.0174 9.27244 24.9666L9.22378 24.9445C8.99599 24.8427 8.77152 24.7399 8.55037 24.6371L8.4995 24.6138C8.28277 24.5132 8.06936 24.4115 7.86037 24.3109L7.79513 24.2788C7.6945 24.2301 7.59498 24.1815 7.49546 24.1328L7.45234 24.1118C7.35614 24.0643 7.26215 24.0167 7.16816 23.9692L7.1383 23.9548C7.0432 23.9061 6.95032 23.8586 6.85743 23.8099L6.79109 23.7757C6.6971 23.7259 6.60421 23.6772 6.51243 23.6286C6.42066 23.5788 6.33109 23.5302 6.24263 23.4815L6.19287 23.4539C6.10551 23.4052 6.02037 23.3577 5.93522 23.309L5.90095 23.2891C5.82133 23.2427 5.74282 23.1973 5.66541 23.152L5.63888 23.1365C5.55926 23.089 5.48186 23.0414 5.40556 22.995L5.35801 22.9651C5.28171 22.9176 5.20652 22.87 5.13354 22.8225C5.06056 22.7749 4.9909 22.7274 4.92234 22.6809L4.88143 22.6533C4.81508 22.608 4.74984 22.5615 4.68681 22.5162L4.66027 22.4963C4.60277 22.4543 4.54638 22.4122 4.4933 22.3702L4.46565 22.3492C4.40816 22.305 4.35397 22.2608 4.3009 22.2165L4.26772 22.1889C4.21796 22.1469 4.17042 22.1059 4.12508 22.0639L4.11292 22.054C4.06537 22.0109 4.02114 21.9666 3.97801 21.9235L3.95147 21.8959C3.90945 21.8527 3.87075 21.8107 3.83426 21.7687L3.82099 21.7521C3.78782 21.7134 3.75686 21.6758 3.72921 21.6371L3.71152 21.6139C3.68166 21.573 3.65402 21.5332 3.62969 21.4934L3.61532 21.469C3.5932 21.4325 3.57441 21.396 3.55671 21.3596C3.5545 21.3551 3.55118 21.3496 3.54897 21.3452C3.53128 21.3065 3.5169 21.2678 3.50474 21.2291L3.497 21.2036C3.48594 21.1649 3.4771 21.1273 3.47157 21.0897V21.082C3.46604 21.0466 3.46493 21.0112 3.46604 20.977C3.46604 20.9692 3.46604 20.9615 3.46604 20.9537C3.46825 20.9172 3.47378 20.8819 3.48263 20.8476C3.48373 20.8409 3.48594 20.8354 3.48816 20.8288C3.497 20.7967 3.50806 20.7658 3.52243 20.7337C3.52464 20.7282 3.52686 20.7237 3.52907 20.7182C3.54565 20.685 3.56556 20.6519 3.58878 20.6187C3.59431 20.611 3.59984 20.6043 3.60537 20.5966C3.62969 20.5634 3.65734 20.5313 3.68941 20.4993C2.3846 22.0341 8.27835 24.1428 13.5319 25.7694C15.9789 26.5268 19.4046 27.1516 21.9943 28.4387" fill="#1E003D"/>
<path opacity="0.63" fill-rule="evenodd" clip-rule="evenodd" d="M13.3019 18.207C13.9554 17.8631 14.5094 17.4705 14.9019 17.0249C19.0386 18.5686 26.1996 21.8029 25.4366 24.7155C25.8734 21.5475 17.2572 19.0905 13.3019 18.207Z" fill="#3E005D"/>
<mask id="mask1_8756_860" style="mask-type:luminance" maskUnits="userSpaceOnUse" x="0" y="20" width="25" height="22">
<path d="M21.865 41.4137C24.3872 36.6124 8.8722 33.6302 6.14427 32.7256C-0.15309 30.638 -0.961407 22.9617 3.69167 20.498C2.24864 21.9433 8.03513 24.5529 13.2134 26.6218C18.9524 28.9152 30.3396 30.8923 21.8661 41.4137" fill="white"/>
</mask>
<g mask="url(#mask1_8756_860)">
<path d="M30.0848 19.8839L30.5799 41.2107L-0.520334 41.9327L-1.01548 20.606L30.0848 19.8839Z" fill="url(#paint4_linear_8756_860)"/>
</g>
<path opacity="0.14" fill-rule="evenodd" clip-rule="evenodd" d="M21.865 41.4137C24.3872 36.6125 8.87219 33.6302 6.14426 32.7257C3.50257 31.8499 1.82623 29.99 1.11522 27.9443C4.46017 31.9671 20.2605 29.3133 20.2605 29.3133C24.5078 31.3667 27.3551 34.5966 21.865 41.4137Z" fill="#F9FCBA"/>
<path fill-rule="evenodd" clip-rule="evenodd" d="M21.865 41.4137C24.3872 36.6124 8.87218 33.6302 6.14424 32.7256C-0.153112 30.638 -0.961428 22.9617 3.69165 20.498C-4.71552 32.8174 28.6688 27.9808 21.865 41.4137Z" fill="#F9FCBA"/>
<path fill-rule="evenodd" clip-rule="evenodd" d="M13.146 16.4068C6.53568 14.2395 -1.29206 9.50455 0.510344 0.572144L17.5149 6.49796C26.9836 9.79758 28.6787 18.8693 25.4377 24.7155C26.3267 21.3219 16.4511 17.4893 13.1471 16.4068" fill="url(#paint5_linear_8756_860)"/>
<mask id="mask2_8756_860" style="mask-type:luminance" maskUnits="userSpaceOnUse" x="0" y="0" width="27" height="25">
<path d="M13.146 16.4068C6.53568 14.2395 -1.29206 9.50455 0.510344 0.572144L17.5149 6.49796C26.9836 9.79758 28.6787 18.8693 25.4377 24.7155C26.3267 21.3219 16.4511 17.4893 13.1471 16.4068" fill="white"/>
</mask>
<g mask="url(#mask2_8756_860)">
<path d="M28.2388 -0.0726563L28.8124 24.6368L-0.924737 25.3273L-1.49842 0.617753L28.2388 -0.0726563Z" fill="url(#paint6_linear_8756_860)"/>
</g>
<path opacity="0.16" fill-rule="evenodd" clip-rule="evenodd" d="M13.146 16.4068C6.53567 14.2395 -1.29207 9.50455 0.510332 0.572144L13.7961 5.202C20.4794 12.3585 14.9019 17.0249 14.9019 17.0249C14.2174 16.7695 13.6148 16.5605 13.146 16.4057" fill="#8EFFC1"/>
<path fill-rule="evenodd" clip-rule="evenodd" d="M0.510345 0.572144L17.5149 6.49796C26.9836 9.79758 28.6787 18.8693 25.4377 24.7155C25.4963 24.4921 25.5074 24.2677 25.4775 24.0421C26.1719 8.1533 5.63006 15.1816 0.510345 0.572144Z" fill="#8EFFC1"/>
<defs>
<linearGradient id="paint0_linear_8756_860" x1="31.2434" y1="7.51285" x2="17.3193" y2="6.17703" gradientUnits="userSpaceOnUse">
<stop stop-color="#009DAE"/>
<stop offset="1" stop-color="#579DAE"/>
</linearGradient>
<linearGradient id="paint1_linear_8756_860" x1="16.4349" y1="10.0178" x2="26.3239" y2="0.400819" gradientUnits="userSpaceOnUse">
<stop stop-color="white" stop-opacity="0"/>
<stop offset="1" stop-color="white"/>
</linearGradient>
<linearGradient id="paint2_linear_8756_860" x1="21.5477" y1="14.2556" x2="20.2225" y2="5.55236" gradientUnits="userSpaceOnUse">
<stop stop-color="#130803"/>
<stop offset="1" stop-color="#130803" stop-opacity="0"/>
</linearGradient>
<linearGradient id="paint3_linear_8756_860" x1="22.1778" y1="25.9825" x2="-10.8898" y2="13.525" gradientUnits="userSpaceOnUse">
<stop stop-color="#FE4F6E"/>
<stop offset="1" stop-color="#D23142"/>
</linearGradient>
<linearGradient id="paint4_linear_8756_860" x1="1.54226" y1="14.1967" x2="26.2834" y2="45.4272" gradientUnits="userSpaceOnUse">
<stop stop-color="#FFAF00"/>
<stop offset="1" stop-color="#FFAF45"/>
</linearGradient>
<linearGradient id="paint5_linear_8756_860" x1="26.798" y1="12.3237" x2="0.472278" y2="12.9349" gradientUnits="userSpaceOnUse">
<stop stop-color="#009DAE"/>
<stop offset="1" stop-color="#579DAE"/>
</linearGradient>
<linearGradient id="paint6_linear_8756_860" x1="23.9826" y1="27.2255" x2="3.0935" y2="-2.30822" gradientUnits="userSpaceOnUse">
<stop stop-color="#009DAE"/>
<stop offset="1" stop-color="#579DAE"/>
</linearGradient>
</defs>
</svg>
