<svg width="24" height="24" viewBox="0 0 24 24" fill="none" xmlns="http://www.w3.org/2000/svg">
<g clip-path="url(#clip0_8756_900)">
<path d="M12 20.4384C16.6529 20.4384 20.4384 16.6529 20.4384 12C20.4384 7.34709 16.6529 3.56165 12 3.56165C7.34709 3.56165 3.56165 7.34709 3.56165 12C3.56165 16.6529 7.34709 20.4384 12 20.4384ZM5.50411 12.9376H8.27076C8.35707 14.8769 8.70937 16.6453 9.26621 17.966C7.2802 17.0523 5.82566 15.1755 5.50411 12.9376ZM12 5.43684C12.0846 5.43684 12.3231 5.55764 12.6201 6.01491C13.285 7.03844 13.7445 8.95591 13.8513 11.0624H10.1487C10.2555 8.95587 10.7151 7.03844 11.3799 6.01486C11.6769 5.55765 11.9154 5.43684 12 5.43684ZM13.8513 12.9376C13.7445 15.0441 13.2849 16.9616 12.6201 17.9851C12.3231 18.4424 12.0846 18.5632 12 18.5632C11.9154 18.5632 11.6769 18.4424 11.3799 17.9851C10.715 16.9616 10.2555 15.0441 10.1487 12.9376H13.8513ZM14.7338 17.966C15.2906 16.6453 15.643 14.8768 15.7293 12.9376H18.4959C18.1744 15.1755 16.7198 17.0523 14.7338 17.966ZM18.4959 11.0624H15.7292C15.6429 9.12313 15.2906 7.35469 14.7338 6.03404C16.7198 6.94768 18.1744 8.82446 18.4959 11.0624ZM9.26621 6.03404C8.70942 7.35473 8.35707 9.12318 8.27076 11.0624H5.50411C5.82566 8.82446 7.2802 6.94768 9.26621 6.03404Z" fill="#001715"/>
<path d="M20.4313 3.56877C16.7842 -0.0781958 11.2087 -1.03553 6.55723 1.18653C6.08998 1.40972 5.89215 1.96947 6.11535 2.43667C6.33859 2.90392 6.89838 3.1018 7.36554 2.87851C11.3013 0.998304 16.0193 1.80862 19.1053 4.89472C22.1914 7.98081 23.0016 12.6986 21.1215 16.6345C20.8983 17.1017 21.0961 17.6614 21.5634 17.8846C22.0298 18.1074 22.5899 17.9108 22.8135 17.4428C25.0356 12.7913 24.0782 7.21573 20.4313 3.56877Z" fill="#001715"/>
<path d="M16.6345 21.1215C12.6987 23.0017 7.98076 22.1913 4.89476 19.1053C1.80867 16.0192 0.998447 11.3014 2.87861 7.36552C3.1018 6.89827 2.90397 6.33857 2.43672 6.11538C1.96942 5.89213 1.40977 6.08997 1.18653 6.55722C-1.03553 11.2088 -0.0781936 16.7843 3.56872 20.4312C5.90512 22.7676 9.03265 24 12.202 24C13.9799 24 15.7711 23.612 17.4428 22.8135C17.91 22.5903 18.1079 22.0305 17.8847 21.5633C17.6615 21.0961 17.1017 20.8983 16.6345 21.1215Z" fill="#001715"/>
<path d="M19.2928 19.2928C18.9266 19.659 18.9266 20.2526 19.2928 20.6187C19.659 20.9849 20.2526 20.9849 20.6188 20.6187C20.9849 20.2526 20.9849 19.6589 20.6188 19.2928C20.2526 18.9267 19.659 18.9267 19.2928 19.2928Z" fill="#001715"/>
<path d="M4.70723 4.70727C5.07341 4.34109 5.07341 3.74745 4.70723 3.38132C4.34106 3.01514 3.74742 3.01514 3.38129 3.38132C3.01516 3.74745 3.01516 4.34114 3.38129 4.70727C3.74742 5.0734 4.34106 5.0734 4.70723 4.70727Z" fill="#001715"/>
</g>
<defs>
<clipPath id="clip0_8756_900">
<rect width="24" height="24" fill="white"/>
</clipPath>
</defs>
</svg>
